<!DOCTYPE svg PUBLIC "-//W3C//DTD SVG 1.1//EN" "http://www.w3.org/Graphics/SVG/1.1/DTD/svg11.dtd">

<!-- Uploaded to: SVG Repo, www.svgrepo.com, Transformed by: SVG Repo Mixer Tools -->
<svg width="50px" height="50px" viewBox="0 0 48 48" xmlns="http://www.w3.org/2000/svg" fill="#ec5242" stroke="#ec5242">

    <g id="SVGRepo_bgCarrier" stroke-width="0"/>
        <g id="SVGRepo_iconCarrier" stroke-width="0"> 
            <title>time-stopwatch</title>
            <g id="Layer_2" data-name="Layer 2"> 
                <g id="invisible_box" data-name="invisible box"> 
                    <rect width="48" height="48" fill="none"/> 
                </g> <g id="Q3_icons" data-name="Q3 icons"> 
                <g> 
                    <path d="M38.8,15.1l2.4-2.5a1.9,1.9,0,0,0,0-2.8,1.8,1.8,0,0,0-1.4-.6,2,2,0,0,0-1.4.6l-2.5,2.4A19.1,19.1,0,0,0,26,8.1V6h2a2,2,0,0,0,0-4H20a2,2,0,0,0,0,4h2V8.1a19,19,0,1,0,16.8,7ZM24,42A15,15,0,1,1,39,27,15,15,0,0,1,24,42Z"/> 
                    <path d="M33,25H26V18a2,2,0,0,0-4,0V29H33a2,2,0,0,0,0-4Z" fill="white" stroke="white"/> 
                </g> 
            </g> 
        </g> 
    </g>
</svg>